<svg width="348" height="348" viewBox="0 0 348 348" fill="none" xmlns="http://www.w3.org/2000/svg">
  <g filter="url(#filter0_b_524_389)">
    <circle cx="173.934" cy="173.066" r="156.066" fill="white"/>
    <mask id="mask0_524_389" style="mask-type:alpha" maskUnits="userSpaceOnUse" x="0" y="0" width="348" height="348">
      <circle cx="174.3" cy="174.166" r="164.7" stroke="black" stroke-width="18"/>
    </mask>
    <g mask="url(#mask0_524_389)">
      <path d="M173.201 175.997L-0.450623 2.13275L-0.450623 349.862L173.201 175.997Z" fill="#F702DC"/>
      <path d="M173.201 175.997L349.05 2.13275L349.05 349.862L173.201 175.997Z" fill="#23A4F7"/>
      <path d="M173.934 174.532L347.798 348.733L0.0689087 348.733L173.934 174.532Z" fill="#FFAD4D"/>
      <path d="M173.934 184.79L0.0689087 0.147766L347.798 0.147766L173.934 184.79Z" fill="#02E183"/>
    </g>
    <circle cx="173.5" cy="174.3" r="156.5" fill="#FCFAF6"/>
    <mask id="mask1_524_389" style="mask-type:alpha" maskUnits="userSpaceOnUse" x="70" y="64" width="212" height="217">
      <path d="M95.8519 186.334C116.449 170.923 167.508 168.102 177.605 152.743C180.061 170.894 225.998 201.691 233.394 221.297C235.065 226.573 247.063 256.837 214.918 275.713C171.376 294.638 152.23 251.942 152.333 252.165C147.947 257.4 113.285 275.941 87.4999 245.143C65.7181 215.652 91.2107 189.471 95.8519 186.334Z" fill="white"/>
      <path d="M144.108 144.972C172.776 153.496 179.605 125.088 182.231 116.302C188.672 90.9626 186.04 70.9906 174.836 65.9143C158.462 60.2674 140.639 71.8234 126.811 93.7998C119.33 106.5 111.227 133.149 144.108 144.972Z" fill="white"/>
      <path d="M95.5878 105.014C109.3 105.132 117.539 130.57 119.019 139.924C121.931 163.559 111.141 170.917 98.4785 173.309C88.0029 174.686 74.0929 163.969 70.4303 143.285C68.7297 130.059 82.502 105.279 95.5878 105.014Z" fill="white"/>
      <path d="M209.148 160.462C179.888 154.262 187.454 126.041 189.342 117.068C195.783 91.7286 207.633 75.4374 219.901 76.3274C236.984 79.1859 247.126 97.8504 248.78 123.762C249.289 138.493 243.683 165.777 209.148 160.462Z" fill="white"/>
      <path d="M271.982 149.248C259.879 142.805 240.491 161.22 234.724 168.732C220.879 188.108 226.845 199.725 236.829 207.874C245.375 214.086 262.714 211.311 275.809 194.887C283.62 184.078 283.353 155.73 271.982 149.248Z" fill="white"/>
    </mask>
    <g mask="url(#mask1_524_389)">
      <path d="M157.454 19.0856L96.6248 7.21257C92.8225 6.47042 88.9707 6.00895 85.1007 5.8319C37.8466 3.67006 -0.702773 43.238 2.69048 90.4197L6.32181 140.912C10.5583 199.819 63.7833 242.827 122.267 234.601L248.748 216.809C289.511 211.076 322.832 181.402 333.232 141.574L344.149 99.764C348.157 84.4137 346.216 68.1156 338.716 54.1357C327.76 33.7162 306.464 20.9747 283.291 20.9747H176.995C170.436 20.9747 163.892 20.3421 157.454 19.0856Z" fill="url(#paint0_angular_524_389)"/>
      <path d="M121.887 332.512L250.443 315.858C297.279 309.79 331.62 268.794 329.383 221.619C327.536 182.684 300.905 149.655 263.663 138.152C234.767 129.226 239.848 129.41 221.85 123.987C204.91 118.883 186.826 118.952 169.69 123.354L124.146 135.052L96.4401 138.74C49.9461 144.929 14.4074 183.279 11.7698 230.108C8.32962 291.186 61.2193 340.371 121.887 332.512Z" fill="url(#paint1_linear_524_389)"/>
      <path d="M47.8085 314.193L211.224 319.105C227.268 319.587 242.731 313.076 253.597 301.261C283.18 269.096 265.534 216.943 222.498 209.348L213.945 207.839C205.107 206.279 196.757 202.671 189.564 197.304C176.232 187.357 159.245 183.673 142.991 187.205L132.55 189.474C122.92 191.567 112.989 191.883 103.246 190.407L64.414 184.524L52.9153 183.968C24.3647 182.587 -1.75332 199.973 -11.4963 226.845C-26.6201 268.558 3.45849 312.86 47.8085 314.193Z" fill="url(#paint2_angular_524_389)"/>
      <path d="M117.535 223.914L72.8348 235.937C48.0874 242.594 37.6768 271.974 52.712 292.727C58.7165 301.015 67.9182 306.409 78.0832 307.599L181.829 319.745C196.701 321.486 211.774 319.932 225.977 315.192L281.496 296.666C292.396 293.029 300.568 283.908 302.991 272.676C307.85 250.154 288.396 229.861 265.689 233.766L219.283 241.747C205.423 244.13 191.164 241.906 178.689 235.414L166.93 229.295C151.719 221.38 134.093 219.46 117.535 223.914Z" fill="url(#paint3_linear_524_389)"/>
    </g>
  </g>
  <defs>
    <filter id="filter0_b_524_389" x="-3.40024" y="-3.53455" width="355.4" height="355.4" filterUnits="userSpaceOnUse" color-interpolation-filters="sRGB">
      <feFlood flood-opacity="0" result="BackgroundImageFix"/>
      <feGaussianBlur in="BackgroundImageFix" stdDeviation="2"/>
      <feComposite in2="SourceAlpha" operator="in" result="effect1_backgroundBlur_524_389"/>
      <feBlend mode="normal" in="SourceGraphic" in2="effect1_backgroundBlur_524_389" result="shape"/>
    </filter>
    <radialGradient id="paint0_angular_524_389" cx="0" cy="0" r="1" gradientUnits="userSpaceOnUse" gradientTransform="translate(173.62 148.375) rotate(90) scale(101.433 839.566)">
      <stop offset="0.00179888" stop-color="#00864D"/>
      <stop offset="0.497437" stop-color="#02E183"/>
    </radialGradient>
    <linearGradient id="paint1_linear_524_389" x1="217.873" y1="68.7049" x2="176.23" y2="311.487" gradientUnits="userSpaceOnUse">
      <stop offset="0.498687" stop-color="#23A4F7"/>
      <stop offset="0.797431" stop-color="#E00B98"/>
    </linearGradient>
    <radialGradient id="paint2_angular_524_389" cx="0" cy="0" r="1" gradientUnits="userSpaceOnUse" gradientTransform="translate(157.215 233.215) rotate(94.9966) scale(86.9796 431.421)">
      <stop stop-color="#C7008D"/>
      <stop offset="0.502888" stop-color="#FD02E6"/>
    </radialGradient>
    <linearGradient id="paint3_linear_524_389" x1="167.354" y1="216.989" x2="160.345" y2="303.658" gradientUnits="userSpaceOnUse">
      <stop offset="0.234375" stop-color="#F8A538"/>
      <stop offset="1" stop-color="#FE5670"/>
    </linearGradient>
  </defs>
</svg>
