<?xml version="1.0" encoding="UTF-8" standalone="no"?>
<svg width="365" height="365" viewBox="0 0 365 365" fill="none" xmlns="http://www.w3.org/2000/svg">
  <rect width="365" height="365" fill="#00CBA6"/>
  <g filter="url(#filter0_d_310_220)">
    <ellipse cx="115.825" cy="177.238" rx="22.7732" ry="31.9237" transform="rotate(-21.3297 115.825 177.238)" fill="white"/>
  </g>
  <g filter="url(#filter1_d_310_220)">
    <ellipse cx="159.246" cy="136.384" rx="22.7193" ry="34.7757" transform="rotate(-4.30831 159.246 136.384)" fill="white"/>
  </g>
  <g filter="url(#filter2_d_310_220)">
    <ellipse cx="213.296" cy="144.969" rx="22.496" ry="34.7757" transform="rotate(13.7983 213.296 144.969)" fill="white"/>
  </g>
  <g filter="url(#filter3_d_310_220)">
    <ellipse cx="248.29" cy="191.067" rx="23.0638" ry="32.6017" transform="rotate(20.3821 248.29 191.067)" fill="white"/>
  </g>
  <g filter="url(#filter4_d_310_220)">
    <path d="M136.476 265.006C144.047 265.972 157.225 255.18 175.087 257.648C192.95 260.117 196.465 268.721 209.045 271.862C221.625 275.003 233.875 266.97 235.743 252.809C236.308 238.783 225.582 222.374 221.086 215.348C210.816 199.657 203.229 191.413 184.842 187.067C166.455 182.722 129.393 203.094 118.668 235.042C114.838 253.616 127.25 265.748 136.476 265.006Z" fill="white"/>
    <path d="M136.476 265.006C144.047 265.972 157.225 255.18 175.087 257.648C192.95 260.117 196.465 268.721 209.045 271.862C221.625 275.003 233.875 266.97 235.743 252.809C236.308 238.783 225.582 222.374 221.086 215.348C210.816 199.657 203.229 191.413 184.842 187.067C166.455 182.722 129.393 203.094 118.668 235.042C114.838 253.616 127.25 265.748 136.476 265.006Z" stroke="white"/>
  </g>
  <defs>
    <filter id="filter0_d_310_220" x="68.6371" y="138.361" width="94.376" height="107.754" filterUnits="userSpaceOnUse" color-interpolation-filters="sRGB">
      <feFlood flood-opacity="0" result="BackgroundImageFix"/>
      <feColorMatrix in="SourceAlpha" type="matrix" values="0 0 0 0 0 0 0 0 0 0 0 0 0 0 0 0 0 0 127 0" result="hardAlpha"/>
      <feOffset dy="15"/>
      <feGaussianBlur stdDeviation="11.5"/>
      <feComposite in2="hardAlpha" operator="out"/>
      <feColorMatrix type="matrix" values="0 0 0 0 0 0 0 0 0 0 0 0 0 0 0 0 0 0 0.25 0"/>
      <feBlend mode="normal" in2="BackgroundImageFix" result="effect1_dropShadow_310_220"/>
      <feBlend mode="normal" in="SourceGraphic" in2="effect1_dropShadow_310_220" result="shape"/>
    </filter>
    <filter id="filter1_d_310_220" x="113.439" y="93.6641" width="91.6147" height="115.44" filterUnits="userSpaceOnUse" color-interpolation-filters="sRGB">
      <feFlood flood-opacity="0" result="BackgroundImageFix"/>
      <feColorMatrix in="SourceAlpha" type="matrix" values="0 0 0 0 0 0 0 0 0 0 0 0 0 0 0 0 0 0 127 0" result="hardAlpha"/>
      <feOffset dy="15"/>
      <feGaussianBlur stdDeviation="11.5"/>
      <feComposite in2="hardAlpha" operator="out"/>
      <feColorMatrix type="matrix" values="0 0 0 0 0 0 0 0 0 0 0 0 0 0 0 0 0 0 0.25 0"/>
      <feBlend mode="normal" in2="BackgroundImageFix" result="effect1_dropShadow_310_220"/>
      <feBlend mode="normal" in="SourceGraphic" in2="effect1_dropShadow_310_220" result="shape"/>
    </filter>
    <filter id="filter2_d_310_220" x="166.922" y="102.768" width="92.7491" height="114.401" filterUnits="userSpaceOnUse" color-interpolation-filters="sRGB">
      <feFlood flood-opacity="0" result="BackgroundImageFix"/>
      <feColorMatrix in="SourceAlpha" type="matrix" values="0 0 0 0 0 0 0 0 0 0 0 0 0 0 0 0 0 0 127 0" result="hardAlpha"/>
      <feOffset dy="15"/>
      <feGaussianBlur stdDeviation="11.5"/>
      <feComposite in2="hardAlpha" operator="out"/>
      <feColorMatrix type="matrix" values="0 0 0 0 0 0 0 0 0 0 0 0 0 0 0 0 0 0 0.25 0"/>
      <feBlend mode="normal" in2="BackgroundImageFix" result="effect1_dropShadow_310_220"/>
      <feBlend mode="normal" in="SourceGraphic" in2="effect1_dropShadow_310_220" result="shape"/>
    </filter>
    <filter id="filter3_d_310_220" x="200.865" y="151.461" width="94.8501" height="109.213" filterUnits="userSpaceOnUse" color-interpolation-filters="sRGB">
      <feFlood flood-opacity="0" result="BackgroundImageFix"/>
      <feColorMatrix in="SourceAlpha" type="matrix" values="0 0 0 0 0 0 0 0 0 0 0 0 0 0 0 0 0 0 127 0" result="hardAlpha"/>
      <feOffset dy="15"/>
      <feGaussianBlur stdDeviation="11.5"/>
      <feComposite in2="hardAlpha" operator="out"/>
      <feColorMatrix type="matrix" values="0 0 0 0 0 0 0 0 0 0 0 0 0 0 0 0 0 0 0.25 0"/>
      <feBlend mode="normal" in2="BackgroundImageFix" result="effect1_dropShadow_310_220"/>
      <feBlend mode="normal" in="SourceGraphic" in2="effect1_dropShadow_310_220" result="shape"/>
    </filter>
    <filter id="filter4_d_310_220" x="94.4551" y="177.985" width="164.809" height="133.054" filterUnits="userSpaceOnUse" color-interpolation-filters="sRGB">
      <feFlood flood-opacity="0" result="BackgroundImageFix"/>
      <feColorMatrix in="SourceAlpha" type="matrix" values="0 0 0 0 0 0 0 0 0 0 0 0 0 0 0 0 0 0 127 0" result="hardAlpha"/>
      <feOffset dy="15"/>
      <feGaussianBlur stdDeviation="11.5"/>
      <feComposite in2="hardAlpha" operator="out"/>
      <feColorMatrix type="matrix" values="0 0 0 0 0 0 0 0 0 0 0 0 0 0 0 0 0 0 0.25 0"/>
      <feBlend mode="normal" in2="BackgroundImageFix" result="effect1_dropShadow_310_220"/>
      <feBlend mode="normal" in="SourceGraphic" in2="effect1_dropShadow_310_220" result="shape"/>
    </filter>
  </defs>
</svg>




