<svg width="300" height="151" viewBox="0 0 300 151" fill="none" xmlns="http://www.w3.org/2000/svg">
<mask id="mask0_812_334" style="mask-type:alpha" maskUnits="userSpaceOnUse" x="0" y="0" width="300" height="151">
<rect width="300" height="151" fill="#D9D9D9"/>
</mask>
<g mask="url(#mask0_812_334)">
<path d="M388.614 62.2711L400.01 30.4418C401.605 25.9875 402.613 21.3444 403.008 16.6298C405.747 -16.0019 379.292 -43.6623 346.57 -42.3794L204.936 -36.8264C139.955 -34.2788 93.9194 27.6105 110.167 90.5794L117.995 120.918C128.291 160.821 161.587 190.608 202.386 196.416L292.827 209.29C303.934 210.871 315.252 210.06 326.021 206.91C359.58 197.094 382.644 166.318 382.644 131.352L382.644 96.6539C382.644 84.9352 384.663 73.304 388.614 62.2711Z" fill="url(#paint0_angular_812_334)"/>
<path d="M86.304 197.127L132.012 195.884C167.485 194.919 199.833 174.515 214.882 142.378C218.255 135.175 219.438 132.427 220.781 129.687C229.405 112.088 231.622 92.0172 224.549 73.74C218.604 58.3753 218.634 41.34 224.634 25.9965L242.746 -20.3232C246.894 -30.9317 244.833 -42.9646 237.39 -51.5876C230.897 -59.1113 221.165 -63.0292 211.27 -62.1036L64.5469 -48.3793C3.2764 -42.6482 -39.0053 15.6246 -25.4471 75.6504L-15.9633 117.638C-5.23017 165.156 37.6067 198.452 86.304 197.127Z" fill="url(#paint1_angular_812_334)"/>
<path d="M33.3953 157.077L47.8062 164.28C81.7578 181.249 122.853 164.036 134.576 127.936L137.233 119.755C139.547 112.627 144.106 106.377 150.163 101.966C163.202 92.4696 168.257 75.2503 162.268 60.2733C159.395 53.0895 158.964 45.1604 161.042 37.7077L167.55 14.3612C168.264 11.8004 168.741 9.17962 168.977 6.53165C170.951 -15.6454 155.874 -35.7382 134.03 -40.0423L96.7232 -47.393C45.5782 -57.4703 -2.66341 -19.9912 -5.54246 32.0576L-8.46924 84.9693C-10.1416 115.203 6.31024 143.539 33.3953 157.077Z" fill="url(#paint2_angular_812_334)"/>
<path d="M89.0511 30.7621L81.1284 16.3299C66.5866 -10.16 34.9802 -22.1949 6.50234 -12.0857L5.60415 -11.7668C-14.4225 -4.65766 -29.4889 12.1064 -34.4276 32.7756L-41.6484 62.9957C-47.6179 87.9788 -42.7789 114.321 -28.3202 135.551L-16.8367 152.413C-9.03199 163.873 3.4176 171.321 17.206 172.778L29.3547 174.063C58.173 177.109 80.3366 149.093 70.7395 121.749C65.5726 107.028 69.5638 90.6443 80.9225 79.9489L81.3417 79.5542C94.7302 66.9474 97.9005 46.8826 89.0511 30.7621Z" fill="url(#paint3_linear_812_334)"/>
</g>
<defs>
<radialGradient id="paint0_angular_812_334" cx="0" cy="0" r="1" gradientUnits="userSpaceOnUse" gradientTransform="translate(218.5 86.5) rotate(-173.234) scale(29.7069 73.3199)">
<stop offset="0.00221524" stop-color="#00864D"/>
<stop offset="0.499445" stop-color="#02E183"/>
</radialGradient>
<radialGradient id="paint1_angular_812_334" cx="0" cy="0" r="1" gradientUnits="userSpaceOnUse" gradientTransform="translate(147.5 81) rotate(-162.867) scale(69.5881 289.025)">
<stop stop-color="#E4089A"/>
<stop offset="0.5" stop-color="#28A7FA"/>
</radialGradient>
<radialGradient id="paint2_angular_812_334" cx="0" cy="0" r="1" gradientUnits="userSpaceOnUse" gradientTransform="translate(80.6125 69.72) rotate(-179.099) scale(91.8481 248.411)">
<stop offset="0.505704" stop-color="#FD02E6"/>
<stop offset="0.999912" stop-color="#C7008D"/>
</radialGradient>
<linearGradient id="paint3_linear_812_334" x1="84.1836" y1="75.1387" x2="-19.3183" y2="56.1549" gradientUnits="userSpaceOnUse">
<stop offset="0.264048" stop-color="#F8A538"/>
<stop offset="1" stop-color="#FE5670"/>
</linearGradient>
</defs>
</svg>
