<svg width="40" height="58" viewBox="0 0 40 58" fill="none" xmlns="http://www.w3.org/2000/svg">
<path fill-rule="evenodd" clip-rule="evenodd" d="M20 0C6 0 0 12 0 18C0 22.915 1.00654 24.8103 2.74478 28.0835C3.12851 28.8061 3.54791 29.5958 4 30.5C6.5 35.5 20 58 20 58C20 58 34 34.5 36 30.5C36.3431 29.8137 36.6863 29.1716 37.0193 28.5483C38.6274 25.5391 40 22.9706 40 18C40 12 34 0 20 0ZM20 34C27.732 34 34 27.732 34 20C34 12.268 27.732 6 20 6C12.268 6 6 12.268 6 20C6 27.732 12.268 34 20 34Z" fill="#00CBA6"/>
</svg>
