<svg width="109" height="79" viewBox="0 0 109 79" fill="none" xmlns="http://www.w3.org/2000/svg">
<path d="M63 16.0001L31.5 40.0001L35.5 45.0001L26.0005 51.9999L22 47.0001L2.50049 61.9999L13 76.5002C13 76.5002 41.5 72.0663 79 67.5M63 16.0001C63 16.0001 75.5 6.49985 93 14.9999C110.5 23.5 116.5 62.9337 79 67.5M63 16.0001C41 32.762 50.5 66 79 67.5M28.5 31.5L27.5 22M20.5 35.5L15 28M15 42L6 38M79 48.0001C90.7521 48.0001 92 30.0001 79 30.0001C66 30.0001 67.2479 48.0001 79 48.0001ZM102.5 8.00002C102.5 -1.25946e-05 90.5 1.03363e-05 90.5 8.00002C90.5 16 102.5 16 102.5 8.00002Z" stroke="black" stroke-width="3"/>
</svg>
